<?xml version="1.0" standalone="no"?>
<!DOCTYPE svg PUBLIC "-//W3C//DTD SVG 20010904//EN"
 "http://www.w3.org/TR/2001/REC-SVG-20010904/DTD/svg10.dtd">
<svg version="1.0" xmlns="http://www.w3.org/2000/svg"
 width="700.000000pt" height="700.000000pt" viewBox="0 0 700.000000 700.000000"
 preserveAspectRatio="xMidYMid meet">
<metadata>
Created by potrace 1.14, written by Peter Selinger 2001-2017
</metadata>
<g transform="translate(0.000000,700.000000) scale(0.100000,-0.100000)"
fill="#000000" stroke="none">
<path d="M1620 6149 c-30 -4 -74 -10 -98 -13 -69 -9 -192 -54 -255 -93 -82
-49 -141 -106 -190 -182 -80 -122 -118 -223 -173 -456 -19 -82 -48 -204 -64
-270 -16 -66 -32 -133 -35 -150 -13 -67 -17 -84 -40 -180 -22 -88 -132 -566
-140 -605 -2 -8 -15 -63 -29 -123 -14 -59 -28 -118 -30 -130 -2 -12 -30 -130
-60 -262 -31 -132 -58 -249 -60 -260 -2 -11 -18 -81 -35 -155 -18 -74 -43
-184 -57 -245 -14 -60 -33 -146 -44 -190 -10 -44 -21 -91 -24 -105 -10 -51
-57 -254 -61 -259 -1 -3 -6 -22 -9 -41 -7 -43 -9 -52 -36 -165 -12 -49 -23
-99 -26 -110 -2 -11 -15 -69 -30 -130 -27 -113 -30 -129 -40 -179 -2 -16 -7
-32 -9 -36 -2 -3 -6 -17 -8 -31 -4 -20 -19 -88 -52 -244 -12 -52 -14 -248 -5
-300 6 -27 26 -82 45 -121 68 -138 187 -215 395 -255 51 -10 595 -13 2460 -15
2616 -2 2509 -4 2686 55 257 87 418 286 498 616 10 39 22 86 27 105 5 19 20
89 35 155 14 66 48 215 74 332 27 116 51 222 54 235 2 13 9 41 14 63 6 22 14
54 17 72 3 17 16 78 30 135 13 57 26 114 29 128 2 14 19 86 36 160 17 74 34
146 36 160 3 14 9 41 14 60 5 19 11 46 13 60 3 14 21 95 41 180 19 85 67 299
106 475 39 176 107 482 152 680 44 198 81 367 83 376 2 9 13 61 25 115 12 55
31 140 42 189 11 50 26 119 34 155 36 164 44 232 40 345 -8 228 -125 375 -343
430 -32 8 -71 18 -88 22 -39 10 -4872 12 -4945 2z m4948 -291 c127 -40 151
-74 146 -217 -1 -53 -5 -109 -9 -126 -3 -16 -20 -91 -36 -165 -17 -74 -33
-146 -35 -160 -3 -14 -23 -106 -45 -205 -23 -99 -43 -191 -45 -205 -3 -14 -27
-122 -54 -240 -27 -118 -51 -226 -54 -240 -3 -14 -14 -68 -26 -120 -12 -52
-24 -106 -26 -120 -3 -14 -17 -74 -31 -135 -14 -60 -29 -129 -34 -153 -5 -24
-11 -46 -13 -50 -2 -4 -7 -25 -10 -47 -4 -22 -20 -98 -37 -170 -35 -155 -48
-213 -53 -240 -2 -11 -9 -40 -16 -65 -7 -25 -14 -54 -16 -65 -10 -54 -18 -91
-49 -226 -19 -80 -37 -161 -40 -180 -3 -19 -8 -42 -11 -51 -7 -23 -62 -266
-100 -442 -8 -38 -17 -72 -19 -76 -2 -4 -7 -20 -9 -37 -20 -111 -143 -620
-162 -673 -56 -148 -146 -242 -277 -287 -116 -41 -118 -41 -2542 -41 -2114 1
-2412 3 -2510 23 -47 10 -108 40 -132 66 -44 48 -51 184 -18 339 9 41 19 85
21 98 6 28 58 255 84 367 10 44 21 91 24 105 3 14 7 34 10 45 2 11 40 178 85
370 44 193 89 388 100 435 11 47 22 97 25 110 5 26 96 422 121 525 14 60 40
172 49 216 3 13 15 62 26 109 11 47 26 114 34 150 8 36 72 310 141 610 70 300
131 564 136 586 4 23 18 79 29 125 84 328 173 426 420 463 68 11 578 13 2495
12 2196 -2 2415 -3 2463 -18z"/>
<path d="M2593 5446 c-98 -32 -219 -132 -258 -212 -31 -64 -32 -149 -2 -214
36 -80 81 -136 281 -350 34 -36 95 -103 136 -150 41 -46 96 -106 121 -134 25
-28 106 -118 179 -201 73 -82 165 -186 205 -230 39 -44 127 -143 195 -220 67
-77 140 -159 161 -181 l38 -41 -27 -21 c-171 -129 -251 -189 -269 -202 -27
-19 -265 -197 -278 -207 -9 -8 -764 -565 -810 -598 -45 -32 -131 -95 -140
-102 -5 -5 -95 -71 -200 -147 -315 -231 -367 -282 -381 -373 -15 -99 59 -229
166 -292 37 -21 57 -26 115 -26 100 0 152 29 465 261 281 208 543 401 848 627
458 337 473 348 992 728 243 177 303 231 332 297 34 77 6 181 -73 272 -17 19
-72 80 -122 134 -51 54 -99 107 -107 116 -8 10 -58 64 -110 120 -52 57 -100
108 -105 114 -6 6 -55 61 -109 121 -55 61 -106 117 -115 126 -9 8 -38 42 -66
74 -27 31 -63 72 -80 89 -30 31 -59 64 -190 210 -38 43 -75 84 -80 90 -25 26
-126 138 -200 221 -226 254 -292 304 -409 311 -35 2 -79 -2 -103 -10z"/>
<path d="M3109 2226 c-175 -63 -226 -333 -91 -473 71 -73 14 -68 832 -68 694
0 737 1 769 18 47 26 84 67 112 123 19 40 24 65 24 134 -1 98 -21 154 -74 208
-72 71 -17 67 -816 69 -575 2 -727 0 -756 -11z"/>
</g>
</svg>
